# xmcd
#
# Track frame offsets: 
#        150
#        17900
#        31197
#        42597
#        55750
#        71177
#        82515
#        98907
#        116122
#        133900
#        148057
#        161650
#        173732
#        183322
#
# Disc length: 3482 seconds
#
# Revision: 0
# Processed by: cddbd v1.5.2PL0 Copyright (c) Steve Scherf et al.
# Submitted via: ExactAudioCopy v0.95b4
#
DISCID=c10d980e
DTITLE=Second Harvest - Chicken City
DYEAR=2002
DGENRE=Folk
TTITLE0=Far Too Long
TTITLE1=Several Years
TTITLE2=Waffle House Woman
TTITLE3=Lightnin' Bar Blues
TTITLE4=Listenin' to the Rain
TTITLE5=Rollin'
TTITLE6=Succulent
TTITLE7=Jeremiah
TTITLE8=Please Come Home
TTITLE9=No. 9
TTITLE10=Lonesome Blues
TTITLE11=Walkin' Out
TTITLE12=Buddah
TTITLE13=Bug
EXTD=
EXTT0=
EXTT1=
EXTT2=
EXTT3=
EXTT4=
EXTT5=
EXTT6=
EXTT7=
EXTT8=
EXTT9=
EXTT10=
EXTT11=
EXTT12=
EXTT13=
PLAYORDER=
